<svg xmlns="http://www.w3.org/2000/svg" xmlns:xlink="http://www.w3.org/1999/xlink" viewBox="0 0 538.13 161.7"><defs><style>.cls-1{fill:#ffec00;}.cls-2{fill:url(#Безымянный_градиент_24);}.cls-24,.cls-3{fill:#fff;}.cls-22,.cls-3,.cls-4{stroke:#fff;}.cls-17,.cls-22,.cls-23,.cls-3,.cls-4,.cls-6{stroke-miterlimit:10;}.cls-3{stroke-width:2px;}.cls-22,.cls-23,.cls-4,.cls-6{fill:none;}.cls-4{stroke-width:3px;}.cls-5{fill:#6f6f6e;}.cls-6{stroke:#6f6f6e;stroke-width:1.5px;}.cls-7{font-size:45px;}.cls-14,.cls-26,.cls-7{fill:#e5007e;}.cls-13,.cls-14,.cls-39,.cls-7{font-family:AlexandraZeferinoOne, Alexandra Zeferino One;}.cls-8{font-size:14px;}.cls-12,.cls-8{fill:#4aae50;font-family:RobotoCondensed-Bold, Roboto Condensed;font-weight:700;}.cls-9{letter-spacing:0.01em;}.cls-10{letter-spacing:-0.06em;}.cls-11{letter-spacing:0.01em;}.cls-12{font-size:9px;}.cls-13{font-size:18px;}.cls-13,.cls-18{fill:#93c01f;}.cls-14{font-size:24px;}.cls-15{letter-spacing:0.09em;}.cls-16{letter-spacing:0.06em;}.cls-17{fill:#fddda6;stroke-width:0.25px;}.cls-17,.cls-23{stroke:#9c9b9b;}.cls-18{font-size:28.42px;}.cls-18,.cls-19,.cls-24{font-family:MyriadHebrew-Regular, Myriad Hebrew;}.cls-19,.cls-24{font-size:21px;}.cls-19{fill:#1d1d1b;}.cls-20{letter-spacing:-0.01em;}.cls-21{letter-spacing:-0.08em;}.cls-23{stroke-width:0.75px;}.cls-25{fill:url(#Безымянный_градиент_58);}.cls-27{fill:#e84e1b;}.cls-28{fill:#662482;}.cls-29{fill:#009ee2;}.cls-30{fill:#941b80;}.cls-31{fill:#e61b72;}.cls-32{fill:#e20613;}.cls-33{fill:#312782;}.cls-34{fill:#f8b133;}.cls-35{fill:#89bd23;}.cls-36{font-size:49.67px;}.cls-36,.cls-37{fill:#5cb030;font-family:AlegreyaSC-Medium, Alegreya SC;font-weight:500;}.cls-37{font-size:24.84px;}.cls-38{letter-spacing:-0.03em;}.cls-39{font-size:22.77px;fill:#e95a0c;}</style><linearGradient id="Безымянный_градиент_24" x1="8.22" y1="124.44" x2="8.22" y2="26.25" gradientUnits="userSpaceOnUse"><stop offset="0" stop-color="#e2312d"/><stop offset="0.08" stop-color="#e86031"/><stop offset="0.17" stop-color="#f08f34"/><stop offset="0.25" stop-color="#fdc700"/><stop offset="0.26" stop-color="#fdc902"/><stop offset="0.34" stop-color="#feda12"/><stop offset="0.45" stop-color="#ffe51d"/><stop offset="0.59" stop-color="#ffec23"/><stop offset="1" stop-color="#ffee25"/></linearGradient><linearGradient id="Безымянный_градиент_58" x1="335" y1="59.72" x2="433.98" y2="59.72" gradientUnits="userSpaceOnUse"><stop offset="0" stop-color="#fff"/><stop offset="0.01" stop-color="#f3f3f3"/><stop offset="0.05" stop-color="#d8d8d8"/><stop offset="0.09" stop-color="#c2c1c1"/><stop offset="0.14" stop-color="#b1b0b0"/><stop offset="0.19" stop-color="#a5a4a4"/><stop offset="0.27" stop-color="#9e9d9d"/><stop offset="0.48" stop-color="#9c9b9b"/><stop offset="0.89" stop-color="#6f6f6e"/></linearGradient><symbol id="ЧАНТА-2" data-name="ЧАНТА" viewBox="0 0 109.11 124.44"><path class="cls-1" d="M13.64,12.61a233.84,233.84,0,0,1,8.18,57.28,234.09,234.09,0,0,1-5.45,54.55,215.19,215.19,0,0,1,92.73-10.91q-5.44-21.82-10.91-43.64,5.46-21.82,10.91-43.64a356.07,356.07,0,0,1-60-5.46A354.35,354.35,0,0,1,13.64,12.61Z"/><path class="cls-2" d="M0,108.08l10.91,16.36A220.94,220.94,0,0,0,16.37,80.8a221.91,221.91,0,0,0-5.46-54.55,131.51,131.51,0,0,1,0,49.1A131,131,0,0,1,0,108.08Z"/><circle class="cls-3" cx="46.37" cy="34.43" r="2.73"/><circle class="cls-3" cx="84.56" cy="34.43" r="2.73"/><path class="cls-4" d="M46.37,34.43c-1-17.09,4-31,10.91-32.73C65-.23,78.45,12,84.56,34.43"/><circle class="cls-5" cx="46.37" cy="34.43" r="2.73"/><circle class="cls-5" cx="84.56" cy="34.43" r="2.73"/><path class="cls-6" d="M46.37,34.43c-1-17.09,4-31,10.91-32.73C65-.23,78.45,12,84.56,34.43"/></symbol></defs><g id="чанта"><use width="109.1" height="124.44" transform="translate(100.47 22.73)" xlink:href="#ЧАНТА-2"/></g><g id="Слой_3" data-name="Слой 3"><text class="cls-7" transform="translate(0 137.27)">Shop</text><text class="cls-8" transform="translate(24 79.78)"><tspan class="cls-9">M</tspan><tspan class="cls-10" x="10.74" y="0">A</tspan><tspan x="18.28" y="0">TR</tspan><tspan class="cls-11" x="33.63" y="0">I</tspan><tspan x="37.54" y="0">X</tspan></text><text class="cls-12" transform="translate(28 59.03)">SHOP</text><text class="cls-13" transform="translate(318 22.5)">Shop</text><text class="cls-14" transform="translate(4 102.67)"><tspan class="cls-15">M</tspan><tspan x="25.94" y="0">atr</tspan><tspan class="cls-16" x="42.14" y="0">i</tspan><tspan x="48.02" y="0">x</tspan></text></g><g id="Слой_4" data-name="Слой 4"><rect class="cls-17" x="190" y="22" width="48" height="96" transform="translate(382 -140) rotate(90)"/><text class="cls-18" transform="matrix(-0.88, 0, 0, -1, 312.01, 9.24)">i</text><text class="cls-19" transform="translate(278.33 81.12)"><tspan class="cls-20">M</tspan><tspan class="cls-21" x="16.67" y="0">A</tspan><tspan x="27.91" y="0">TR X </tspan></text><text class="cls-13" transform="translate(322.93 85.66)">Shop</text><line class="cls-22" x1="260" y1="49" x2="335" y2="49"/><rect class="cls-23" x="273.5" y="58.5" width="77" height="31"/><text class="cls-24" transform="translate(332.97 70.72) rotate(-179.93)">i</text><path class="cls-25" d="M433.24,30.72,383.74,3,335,32l.74,56.72,49.49,27.72,48.75-29ZM384.87,89l-25.54-14.3-.39-29.28,25.16-15,25.55,14.31L410,74Z" transform="translate(98 4)"/><polygon class="cls-26" points="447.27 20.77 444.42 16.77 446.49 12.32 451.41 11.87 454.25 15.87 452.19 20.32 447.27 20.77"/><polygon class="cls-27" points="432.79 53.89 429.94 49.89 432 45.44 436.92 44.99 439.77 48.99 437.7 53.44 432.79 53.89"/><polygon class="cls-28" points="418.3 64.24 415.45 60.23 417.51 55.78 422.43 55.34 425.28 59.34 423.21 63.79 418.3 64.24"/><polygon class="cls-29" points="454.52 35.26 451.67 31.26 453.73 26.81 458.65 26.36 461.5 30.36 459.43 34.81 454.52 35.26"/><polygon class="cls-30" points="448.31 76.65 445.46 72.65 447.52 68.2 452.44 67.75 455.29 71.75 453.22 76.2 448.31 76.65"/><polygon class="cls-31" points="441.06 65.27 438.21 61.27 440.28 56.82 445.2 56.37 448.05 60.37 445.98 64.82 441.06 65.27"/><polygon class="cls-32" points="437.96 87 435.11 83 437.18 78.55 442.09 78.1 444.94 82.1 442.88 86.55 437.96 87"/><polygon class="cls-33" points="454.52 97.35 451.67 93.35 453.73 88.9 458.65 88.45 461.5 92.45 459.43 96.9 454.52 97.35"/><polygon class="cls-34" points="430.72 75.62 427.87 71.62 429.93 67.17 434.85 66.72 437.7 70.72 435.63 75.17 430.72 75.62"/><polygon class="cls-35" points="449.34 49.75 446.49 45.75 448.56 41.3 453.48 40.85 456.32 44.85 454.26 49.3 449.34 49.75"/><polygon class="cls-1" points="438.31 36.47 435.16 32.67 436.88 28.04 441.75 27.22 444.89 31.02 443.18 35.65 438.31 36.47"/><text class="cls-36" transform="translate(462.12 78.38)">M</text><text class="cls-37" transform="translate(444.88 142.64)">m<tspan class="cls-38" x="17.71" y="0">a</tspan><tspan x="30.05" y="0">trix</tspan></text><text class="cls-39" transform="translate(500 142.57)">Shop</text></g></svg>