<svg xmlns="http://www.w3.org/2000/svg" xmlns:xlink="http://www.w3.org/1999/xlink" viewBox="0 0 150 150"><defs><style>.cls-1{fill:url(#Безымянный_градиент_58);}.cls-2{fill:#e5007e;}.cls-3{fill:#e84e1b;}.cls-4{fill:#662482;}.cls-5{fill:#009ee2;}.cls-6{fill:#941b80;}.cls-7{fill:#e61b72;}.cls-8{fill:#e20613;}.cls-9{fill:#312782;}.cls-10{fill:#f8b133;}.cls-11{fill:#89bd23;}.cls-12{fill:#ffec00;}.cls-13{font-size:49.67px;}.cls-13,.cls-14{fill:#5cb030;font-family:AlegreyaSC-Medium, Alegreya SC;font-weight:500;}.cls-14{font-size:24.84px;}.cls-15{letter-spacing:-0.03em;}.cls-16{font-size:22.77px;fill:#e95a0c;font-family:AlexandraZeferinoOne, Alexandra Zeferino One;}</style><linearGradient id="Безымянный_градиент_58" x1="26" y1="59.72" x2="124.98" y2="59.72" gradientUnits="userSpaceOnUse"><stop offset="0" stop-color="#fff"/><stop offset="0.01" stop-color="#f3f3f3"/><stop offset="0.05" stop-color="#d8d8d8"/><stop offset="0.09" stop-color="#c2c1c1"/><stop offset="0.14" stop-color="#b1b0b0"/><stop offset="0.19" stop-color="#a5a4a4"/><stop offset="0.27" stop-color="#9e9d9d"/><stop offset="0.48" stop-color="#9c9b9b"/><stop offset="0.89" stop-color="#6f6f6e"/></linearGradient></defs><g id="Слой_4" data-name="Слой 4"><path class="cls-1" d="M124.24,30.72,74.74,3,26,32l.74,56.72,49.49,27.72,48.75-29ZM75.87,89,50.33,74.69l-.39-29.28,25.16-15,25.55,14.31L101,74Z"/><polygon class="cls-2" points="40.27 16.78 37.42 12.78 39.49 8.33 44.41 7.88 47.26 11.88 45.19 16.33 40.27 16.78"/><polygon class="cls-3" points="25.79 49.89 22.94 45.89 25 41.44 29.92 40.99 32.77 44.99 30.7 49.44 25.79 49.89"/><polygon class="cls-4" points="11.3 60.24 8.45 56.24 10.52 51.79 15.43 51.34 18.28 55.34 16.21 59.79 11.3 60.24"/><polygon class="cls-5" points="47.52 31.27 44.67 27.27 46.73 22.82 51.65 22.37 54.5 26.37 52.43 30.82 47.52 31.27"/><polygon class="cls-6" points="41.31 72.66 38.46 68.66 40.52 64.21 45.44 63.76 48.29 67.76 46.22 72.21 41.31 72.66"/><polygon class="cls-7" points="34.06 61.27 31.21 57.27 33.28 52.83 38.2 52.38 41.05 56.38 38.98 60.83 34.06 61.27"/><polygon class="cls-8" points="30.96 83.01 28.11 79.01 30.18 74.56 35.09 74.11 37.94 78.11 35.88 82.56 30.96 83.01"/><polygon class="cls-9" points="47.52 93.36 44.67 89.35 46.73 84.91 51.65 84.46 54.5 88.46 52.43 92.91 47.52 93.36"/><polygon class="cls-10" points="23.72 71.62 20.87 67.62 22.93 63.17 27.85 62.72 30.7 66.72 28.63 71.17 23.72 71.62"/><polygon class="cls-11" points="42.34 45.75 39.49 41.75 41.56 37.3 46.48 36.85 49.33 40.85 47.26 45.3 42.34 45.75"/><polygon class="cls-12" points="31.31 32.48 28.16 28.68 29.88 24.05 34.75 23.22 37.89 27.02 36.17 31.65 31.31 32.48"/><text class="cls-13" transform="translate(55.12 74.38)">M</text><text class="cls-14" transform="translate(37.88 138.65)">m<tspan class="cls-15" x="17.71" y="0">a</tspan><tspan x="30.05" y="0">trix</tspan></text><text class="cls-16" transform="translate(93 138.58)">Shop</text></g></svg>